<?xml version="1.0" encoding="utf-8" ?><svg xmlns="http://www.w3.org/2000/svg" xmlns:xlink="http://www.w3.org/1999/xlink" width="375" height="325" viewBox="0 0 375 325"><path fill="white" d="M0 0L375 0L375 325L0 325L0 0Z"/><path d="M72.1143 169.968C66.8099 166.45 61.5051 161.35 59.221 155.196C58.0038 153.515 59.8498 148.179 62.1558 148.115C69.7055 147.905 77.7077 156.887 84.2984 159.466C88.365 161.057 90.9421 161.385 94.3682 162.253C98.7193 163.383 102.896 165.101 106.784 167.358C117.05 173.213 123.537 183.374 129.133 193.468C137.257 208.122 144.692 224.254 149.111 240.442C150.129 234.513 153.204 227.149 155.27 221.364C162.033 202.426 168.467 183.319 178.745 165.929C184.719 155.82 186.242 155.115 193.77 164.531C201.74 174.555 208.249 185.659 213.1 197.511C241.704 196.868 259.212 199.061 285.696 211.54C293.535 201.929 308.025 190.437 319.427 185.582C322.702 184.187 325.141 183.5 328.595 182.664C338.403 202.425 332.08 258.312 329.414 280.629C332.757 280.905 345.189 283.234 346.834 286.221L346.642 286.589C344.74 287.036 331.718 283.478 329.132 282.797C328.793 285.693 328.41 288.583 327.982 291.466C330.342 292.381 338.055 295.018 338.692 297.323L338.33 297.654C335.819 297.859 330.134 294.994 327.601 293.831C327.327 296.089 326.149 307.216 323.298 307.185C322.001 305.538 324.688 295.402 325.217 293.105C323.636 292.704 316.966 291.318 316.904 289.513C318.545 288.74 323.528 290.303 325.394 290.79L326.841 282.813C324.149 282.51 320.166 282.395 317.636 281.603C317.263 281.487 317.271 281.155 317.112 280.68L317.374 280.302C319.214 279.531 324.86 279.99 326.926 280.309C329.491 253.783 332.954 227.156 330.062 200.496C329.429 194.662 328.305 190.783 327.344 185.302C322.903 187.109 318.101 189.11 313.933 191.47C303.972 197.109 293.742 206.462 285.789 214.786C284.015 213.291 276.368 209.955 274.03 209.067C252.173 200.773 233.989 199.464 211.171 200.019C204.655 183.816 197.884 172.759 185.889 160.075C173.408 178.424 169.118 191.271 161.41 212.171C156.151 226.431 152.166 238.753 147.683 253.242C149.493 253.618 154.949 254.919 155.593 256.658L155.279 257.026C153.068 257.56 149.352 256.267 147.105 255.586C146.975 257.403 146.122 261.289 145.748 263.229C148.092 263.387 151.737 263.47 153.62 264.756C154.027 265.455 153.999 265.172 153.86 265.853C152.393 266.41 146.935 265.875 145.06 265.757C144.907 268.259 144.368 279.395 142.172 280.493L141.735 280.288C140.179 277.636 141.915 268.812 142.55 265.766C140.722 265.813 131.245 266.563 130.518 265.519C131.088 262.981 141.015 263.335 143.12 263.319C143.513 260.577 144.212 257.549 144.891 254.868C142.418 254.673 128.408 253.489 127.444 252.245C128.217 249.54 142.757 252.417 145.452 252.879C146.154 249.805 146.958 246.754 147.865 243.733C145.73 239.503 144.386 233.4 142.548 228.801C135.44 211.019 127.759 192.611 115.277 177.841C112.075 174.053 108.558 171.14 104.188 168.623C96.7734 164.352 89.1056 164.604 81.4252 160.886C75.4372 157.883 70.0535 152.526 63.5536 150.755C62.5857 150.491 61.5636 151.961 61.7398 152.95C63.5285 162.996 74.4524 168.591 82.0703 173.853C82.7146 174.299 82.7486 174.903 82.7537 175.564C81.089 176.891 75.558 172.438 74.3364 171.249C68.729 179.002 70.87 181.922 77.5407 187.694C80.2475 184.202 81.4942 183.604 85.642 182.581C84.2887 181.629 80.0962 178.939 80.017 177.302L80.5117 177.005C81.3548 176.967 81.6258 177.239 82.3472 177.704L82.612 177.877C83.8371 177.841 83.0752 177.767 84.3584 176.831C85.3369 176.974 87.4598 181.979 88.8043 183.529C86.8281 184.653 82.2072 186.077 81.2362 186.942C75.3605 192.177 84.7969 199.173 90.2009 197.985C93.2422 197.317 95.604 194.342 98.0453 194.597C98.4736 195.232 98.3923 194.924 98.2662 195.775C96.8307 197.999 94.0328 199.248 91.6946 200.237C92.1325 201.951 92.3351 204.057 92.5599 205.838C98.6913 210.494 99.9656 213.429 102.748 220.55C110.346 239.992 112.052 260.526 111.49 281.198C115.332 281.424 122.555 282.513 126.414 283.054L149.891 286.343L226.818 296.865C240.159 298.7 256.579 301.538 269.734 302.568C270.674 301.666 271.919 300.481 272.975 299.772C278.67 295.947 288.03 296.112 294.528 297.35C299.551 298.307 306.519 300.152 310.423 303.59C312.082 305.052 313.567 307.228 314.822 309.045C317.058 309.765 325.325 310.797 327.935 311.096C335.078 311.916 341.677 312.809 348.793 313.97L348.576 314.772C345.236 314.725 338.123 313.839 334.73 313.407C328.802 312.653 319.967 311.871 314.348 310.323C311.769 314.574 307.766 317.773 303.05 319.352C298.987 320.669 296.27 320.076 292.572 318.215C284.045 321.008 284.898 319.121 278.012 315.558C272.027 312.461 266.626 312.816 269.125 303.868C262.152 303.267 253.425 301.851 246.384 300.878L207.595 295.588L129.68 285.132C106.242 282.032 65.6652 276.882 41.154 273.138C40.8608 273.093 40.778 272.532 40.7138 272.271L41.0075 271.981C45.0453 271.872 48.4124 272.739 52.3701 273.286C56.7317 273.888 61.1043 274.45 65.469 275.035L91.2369 278.505C97.1384 279.287 103.021 279.897 108.868 281.023C109.124 275.043 109.016 269.121 108.63 262.41C107.654 245.425 103.898 226.702 95.6693 211.569C95.322 210.93 91.7879 208.656 90.9035 207.855L90.7197 207.686C88.5844 208.271 85.42 209.118 83.2959 208.175C80.8175 207.19 79.5209 203.173 77.7367 201.699C71.5919 196.621 67.615 194.859 71.8146 186.039C66.7 179.513 67.7661 176.315 72.1143 169.968Z"/><path fill="white" d="M286.432 299.111C286.565 299.099 286.699 299.089 286.832 299.082C296.922 298.487 305.107 302.695 312.425 309.215C311.269 310.383 310.1 311.539 308.92 312.684C305.602 315.854 302.66 317.606 297.966 317.54C291.558 317.45 295.359 312.836 293.915 311.247C289.907 312.349 293.356 315.891 289.79 316.441C283.195 317.459 280.167 316.309 280.976 309.089C281.03 308.607 280.662 308.266 280.319 308.02C279.056 308.569 278.171 311.552 277.854 312.796C274.779 311.982 270.96 310.146 270.959 306.614C270.957 299.958 282.118 299.364 286.432 299.111Z"/><path fill="white" d="M84.1252 199.743C88.4587 199.79 89.3624 200.635 90.4524 204.612L87.0883 206.512C83.8841 205.654 82.1272 204.373 80.3917 201.659C81.6608 200.96 82.8255 200.376 84.1252 199.743Z"/><path fill="white" d="M72.9993 187.805C73.749 187.952 76.0876 189.172 76.9031 189.571C77.5819 194.103 78.0591 194.939 81.2248 198.515C74.0092 199.138 72.8723 193.458 72.9993 187.805Z"/><path d="M265.793 257.255C276.647 256.507 276.376 269.508 266.879 274.789C265.781 274.894 264.673 274.799 263.609 274.51C256.917 272.709 257.963 264.88 261.601 260.608C263.009 258.954 263.896 258.329 265.793 257.255Z"/><path d="M190.62 243.778C200.912 243.811 199.304 258.57 189.333 261.531C179.173 260.582 181.162 247.166 190.62 243.778Z"/><path d="M222.976 268.804C236.154 268.527 240.32 277.063 227.436 278.379C228.158 280.916 228.285 281.619 229.964 283.595C230.993 283.152 232.526 282.162 233.265 283.214C232.908 284.628 231.173 285.596 229.827 285.83C227.71 283.985 227.149 283.164 226.002 280.6C224.05 282.476 221.979 284.431 219.206 282.521C218.742 282.202 218.781 282.136 218.721 281.626C219.322 280.999 219.023 281.167 219.842 280.966C222.895 282.427 223.67 280.78 225.619 278.6C223.253 276.278 216.877 270.852 222.976 268.804Z"/><path d="M268.263 251.548C272.744 251.414 276.433 252.654 279.311 256.355C283.541 261.793 284.433 272.454 278.489 277.079C277.871 277.56 276.759 278.216 275.984 278.091C275.894 277.806 279.502 271.589 280.003 269.373C280.234 261.151 277.577 252.655 267.988 253.985C263.498 254.608 261.985 257.82 258.638 260.293L258.376 260.028C258.482 259.432 258.6 259.165 258.899 258.659C261.449 254.352 263.603 252.79 268.263 251.548Z"/><path d="M192.073 238.282C196.718 237.849 200.826 239.894 203.332 243.836C205.665 247.534 206.429 252.01 205.456 256.273C204.493 260.457 202.389 263.216 198.812 265.458C199.84 262.272 201.76 259.807 202.865 256.59C203.062 255.831 203.034 254.733 203.089 253.924C203.542 247.278 200.173 239.433 192.317 240.458C187.765 241.051 186.184 244.357 182.208 246.328C182.503 245.674 182.834 245.036 183.201 244.419C185.401 240.719 188.078 239.295 192.073 238.282Z"/><path d="M185.779 175.12L186.361 175.295C187.485 177.094 177.609 199.52 177.221 202.995C177.119 203.904 175.282 209.558 174.441 210.119C173.801 209.718 173.688 209.698 173.325 209.069C173.404 203.968 182.958 179.854 185.779 175.12Z"/><path d="M318.559 198.329C319.727 198.671 319.474 198.425 320.096 199.172C321.125 204.808 318.486 228.119 316.807 233.874C316.062 234.043 316.418 234.066 315.701 233.802C315.153 232.399 318.247 202.687 318.559 198.329Z"/><path fill="#16121C" d="M348.793 313.97L352.536 314.678C351.264 314.732 349.834 314.827 348.576 314.772L348.793 313.97Z"/></svg>