<svg xmlns="http://www.w3.org/2000/svg" viewBox="0 0 64 64" role="img" aria-labelledby="title desc">
  <title id="title">Joydip Bag favicon</title>
  <desc id="desc">A black and neon green JB engineering monogram.</desc>
  <rect width="64" height="64" rx="16" fill="#fff"/>
  <rect x="13" y="14" width="38" height="38" rx="7" fill="#D4FF00" transform="rotate(-4 32 33)"/>
  <rect x="10" y="10" width="44" height="44" rx="10" fill="none" stroke="#000" stroke-width="4"/>
  <g fill="#000">
    <path d="M24.7 42.2c-5.4 0-8.8-3.3-8.8-8.4h6.2c.1 1.9 1 3 2.6 3 1.7 0 2.6-1.1 2.6-3.1V21.5h6.3v12.2c0 5.3-3.4 8.5-8.9 8.5Z"/>
    <path d="M36.2 21.5h7.7c4.2 0 6.6 2.1 6.6 5.6 0 2-.9 3.5-2.5 4.4 2 .9 3.1 2.6 3.1 4.9 0 4.3-3 7.1-7.4 7.1h-7.5v-22Zm7.1 8.4c1.3 0 2.1-.7 2.1-1.9s-.8-1.9-2.1-1.9H42v3.8h1.3Zm.4 9c1.4 0 2.2-.8 2.2-2.2s-.8-2.2-2.2-2.2H42v4.4h1.7Z"/>
  </g>
  <path stroke="#000" stroke-linecap="round" stroke-width="3" d="M18 48.5h18"/>
  <circle cx="50" cy="14" r="3.2" fill="#D4FF00" stroke="#000" stroke-width="2"/>
</svg>
